<svg width="49" height="40" viewBox="0 0 49 40" fill="none" xmlns="http://www.w3.org/2000/svg">
<path d="M24.3516 0C24.9482 7.60248e-05 25.524 0.211662 25.9698 0.594624C26.4156 0.977587 26.7004 1.50529 26.7702 2.07765L26.7873 2.35294V4.70588H30.4407C35.2334 4.70706 39.8336 6.52779 43.2495 9.77548C46.6654 13.0232 48.6232 17.4376 48.7009 22.067C48.7785 26.6964 46.9698 31.1698 43.6646 34.5227C40.3595 37.8756 35.8227 39.8394 31.0326 39.9906L30.4407 40H18.2626C13.4699 39.9988 8.86962 38.1781 5.45375 34.9304C2.03789 31.6827 0.080053 27.2682 0.00240078 22.6389C-0.0752514 18.0095 1.7335 13.536 5.03865 10.1831C8.3438 6.83025 12.8806 4.86648 17.6707 4.71529L18.2626 4.70588H21.916V2.35294C21.916 1.7289 22.1726 1.13042 22.6294 0.68916C23.0861 0.247898 23.7057 0 24.3516 0ZM32.8763 16.4706C32.2304 16.4706 31.6108 16.7185 31.1541 17.1597C30.6973 17.601 30.4407 18.1995 30.4407 18.8235V20H29.2229C28.5769 20 27.9574 20.2479 27.5006 20.6892C27.0439 21.1304 26.7873 21.7289 26.7873 22.3529C26.7873 22.977 27.0439 23.5755 27.5006 24.0167C27.9574 24.458 28.5769 24.7059 29.2229 24.7059H30.4407V25.8824C30.4407 26.5064 30.6973 27.1049 31.1541 27.5461C31.6108 27.9874 32.2304 28.2353 32.8763 28.2353C33.5223 28.2353 34.1418 27.9874 34.5986 27.5461C35.0553 27.1049 35.3119 26.5064 35.3119 25.8824V24.7059H36.5298C37.1757 24.7059 37.7952 24.458 38.252 24.0167C38.7088 23.5755 38.9654 22.977 38.9654 22.3529C38.9654 21.7289 38.7088 21.1304 38.252 20.6892C37.7952 20.2479 37.1757 20 36.5298 20H35.3119V18.8235C35.3119 18.1995 35.0553 17.601 34.5986 17.1597C34.1418 16.7185 33.5223 16.4706 32.8763 16.4706ZM15.8269 16.4706C14.212 16.4706 12.6632 17.0903 11.5213 18.1935C10.3794 19.2966 9.73786 20.7928 9.73786 22.3529C9.73786 23.913 10.3794 25.4092 11.5213 26.5124C12.6632 27.6156 14.212 28.2353 15.8269 28.2353C17.4419 28.2353 18.9906 27.6156 20.1326 26.5124C21.2745 25.4092 21.916 23.913 21.916 22.3529C21.916 20.7928 21.2745 19.2966 20.1326 18.1935C18.9906 17.0903 17.4419 16.4706 15.8269 16.4706ZM15.8269 21.1765C16.1499 21.1765 16.4597 21.3004 16.6881 21.5211C16.9164 21.7417 17.0447 22.0409 17.0447 22.3529C17.0447 22.665 16.9164 22.9642 16.6881 23.1848C16.4597 23.4055 16.1499 23.5294 15.8269 23.5294C15.5039 23.5294 15.1942 23.4055 14.9658 23.1848C14.7374 22.9642 14.6091 22.665 14.6091 22.3529C14.6091 22.0409 14.7374 21.7417 14.9658 21.5211C15.1942 21.3004 15.5039 21.1765 15.8269 21.1765Z" fill="#FA8400"/>
</svg>
